<?xml version="1.0" standalone="no"?>
<!DOCTYPE svg PUBLIC "-//W3C//DTD SVG 20010904//EN"
 "http://www.w3.org/TR/2001/REC-SVG-20010904/DTD/svg10.dtd">
<svg version="1.0" xmlns="http://www.w3.org/2000/svg"
 width="300.000000pt" height="300.000000pt" viewBox="0 0 300.000000 300.000000"
 preserveAspectRatio="xMidYMid meet">

<g transform="translate(0.000000,300.000000) scale(0.100000,-0.100000)"
fill="#000000" stroke="none">
<path d="M440 2963 c-34 -6 -122 -39 -169 -62 -55 -29 -157 -135 -187 -196
-56 -115 -54 -73 -54 -1221 0 -1012 1 -1063 19 -1115 56 -165 154 -268 308
-325 l78 -29 1065 0 c1018 0 1067 1 1120 19 94 32 147 64 210 125 68 67 123
170 140 262 7 37 10 412 8 1105 l-3 1049 -24 60 c-34 86 -80 153 -140 208 -54
47 -70 57 -171 99 l-55 23 -1060 1 c-583 1 -1071 0 -1085 -3z m2105 -383 l0
-135 -1042 -3 -1043 -2 0 140 0 140 1043 -2 1042 -3 0 -135z m-810 -607 l230
-228 -162 -3 -163 -2 0 -735 0 -735 -135 0 -135 0 0 735 0 735 -167 0 -168 0
230 230 c126 127 232 230 235 230 3 0 109 -102 235 -227z"/>
</g>
</svg>